<?xml version="1.0" encoding="UTF-8"?>
<svg version="1.1" xmlns="http://www.w3.org/2000/svg" width="512" height="218">
<path d="M0 0 C1.90522247 0.87242703 3.81181295 1.74187247 5.71972656 2.60839844 C11.2442545 5.12493575 16.74838749 7.68384702 22.25 10.25 C26.34629684 12.15461473 30.44462519 14.05414738 34.55566406 15.92675781 C36.78455347 16.94483007 39.00592057 17.97960583 41.21777344 19.03417969 C46.80037899 21.59756452 50.11850531 22.81590974 56.25 21.25 C58.19011058 20.93042323 60.1333113 20.62942633 62.078125 20.33984375 C63.2419873 20.15832764 64.40584961 19.97681152 65.60498047 19.78979492 C82.42253601 17.18926154 99.27060236 14.80546271 116.12927246 12.48806763 C118.78120324 12.12340414 121.43248844 11.75476651 124.08361816 11.38424683 C127.86465511 10.85675616 131.6469344 10.33924043 135.4296875 9.82421875 C136.55887604 9.66507996 137.68806458 9.50594116 138.85147095 9.34197998 C151.27093598 7.67602939 161.56738507 6.96820224 172.25 14.3125 C174.25 16.25 174.25 16.25 176.25 19.25 C178.13469381 19.69640087 178.13469381 19.69640087 180.33349609 19.61508179 C181.18845169 19.62039413 182.04340729 19.62570648 182.92427063 19.63117981 C183.8644957 19.6218895 184.80472076 19.61259918 185.7734375 19.60302734 C186.76228439 19.60518753 187.75113129 19.60734772 188.76994324 19.60957336 C190.92362504 19.61266778 193.07732436 19.60903265 195.23098755 19.59955978 C198.64499043 19.58585727 202.05840952 19.59223972 205.47241211 19.60440063 C215.18135307 19.63540298 224.89016143 19.63055667 234.59912109 19.61035156 C240.53436531 19.59940245 246.46917405 19.61269868 252.40435791 19.64024734 C254.6624525 19.6456738 256.92059102 19.64166023 259.1786499 19.62784958 C262.35004634 19.60869221 265.5200322 19.62026964 268.69140625 19.63818359 C269.61543747 19.62484482 270.53946869 19.61150604 271.49150085 19.59776306 C279.1688075 19.69358126 285.69843026 21.97224689 291.40602112 27.23979759 C298.1704721 34.39809703 299.69973164 40.95341982 299.66992188 50.5246582 C299.67839142 51.53374237 299.68686096 52.54282654 299.69558716 53.58248901 C299.71891103 56.90538271 299.71998028 60.22781201 299.71875 63.55078125 C299.72585502 65.87094811 299.73355452 68.19111323 299.74182129 70.51127625 C299.75525605 75.37076706 299.75683961 80.23009544 299.75097656 85.08959961 C299.74508569 91.30020169 299.77565242 97.51002065 299.81609344 103.72047138 C299.84201399 108.51191873 299.84484378 113.30317871 299.84120178 118.09468651 C299.84288935 120.38350579 299.8524967 122.67233406 299.87034607 124.96108437 C299.89261804 128.17029985 299.88279056 131.37794554 299.86523438 134.5871582 C299.88512924 135.98947441 299.88512924 135.98947441 299.90542603 137.42012024 C299.79753301 145.95927525 296.67781979 152.6799899 291.125 159.125 C280.788382 168.39511464 266.78443916 166.82123672 253.8359375 166.74609375 C251.65361483 166.74624895 249.47129188 166.74774144 247.28897095 166.75050354 C242.73158474 166.75188283 238.17451504 166.73940619 233.6171875 166.71655273 C227.79237667 166.68813604 221.96808979 166.69092111 216.14323997 166.70364285 C211.64264493 166.71061517 207.14216984 166.70279351 202.64159012 166.69038582 C200.49431443 166.68588882 198.34702579 166.6855191 196.19974899 166.68945122 C193.19458587 166.69237956 190.19013182 166.67578 187.18505859 166.65405273 C185.87093239 166.66080521 185.87093239 166.66080521 184.53025818 166.66769409 C176.04702043 166.56639724 169.05541688 164.43507953 162.25 159.25 C161.66883423 158.42846436 161.66883423 158.42846436 161.07592773 157.59033203 C158.07988523 155.39107098 154.90027711 156.32846322 151.41015625 156.8046875 C150.58685318 156.90433807 149.76355011 157.00398865 148.91529846 157.10665894 C146.0235669 157.46569409 143.13703736 157.85501512 140.25 158.25 C139.15113464 158.39860474 138.05226929 158.54720947 136.92010498 158.70031738 C126.85410785 160.06953295 116.79642295 161.49749186 106.7409668 162.94189453 C102.91017394 163.49075151 99.07824823 164.03105662 95.24609375 164.5703125 C94.08863144 164.73902863 92.93116913 164.90774475 91.7386322 165.08157349 C79.85969168 166.742826 69.79740706 167.40097977 59.17578125 161 C52.71700649 156.0683542 50.14205004 148.5913578 47.25 141.25 C46.84910156 142.1678125 46.44820313 143.085625 46.03515625 144.03125 C41.71996289 153.50737331 36.9761694 161.34837788 26.75 165.25 C13.01661827 168.91540864 1.05979083 162.47193007 -11.1875 156.8125 C-13.23365124 155.87574402 -15.28085665 154.94131835 -17.32810974 154.00697327 C-18.72131958 153.37094069 -20.11419185 152.73416818 -21.50672913 152.09666443 C-28.66720069 148.82085119 -35.86226042 145.62473174 -43.0625 142.4375 C-45.28789474 141.45212621 -47.51316749 140.46647686 -49.73828125 139.48046875 C-51.12333862 138.86788208 -51.12333862 138.86788208 -52.53637695 138.24291992 C-53.95401393 137.6070393 -55.36031262 136.94484369 -56.75 136.25 C-56.915 136.930625 -57.08 137.61125 -57.25 138.3125 C-60.64389588 144.95887943 -66.85316552 148.82742048 -73.75 151.25 C-76.78900686 151.98915818 -79.84984731 152.48582591 -82.93896484 152.9675293 C-83.83261246 153.11427094 -84.72626007 153.26101257 -85.64698792 153.41220093 C-88.58358599 153.89191202 -91.52210308 154.3584205 -94.4609375 154.82421875 C-96.51455087 155.15564226 -98.56806717 155.48766772 -100.62149048 155.82026672 C-104.91927755 156.51432266 -109.21802159 157.20200329 -113.51757812 157.88500977 C-119.01235811 158.75827151 -124.5046975 159.64590058 -129.99641991 160.53816509 C-134.23534332 161.22548931 -138.475361 161.90585367 -142.71574783 162.58408546 C-144.74054076 162.90865026 -146.76501967 163.23518066 -148.7891655 163.56375694 C-151.62580192 164.0230026 -154.46375838 164.47301286 -157.30224609 164.9206543 C-158.54164192 165.12397621 -158.54164192 165.12397621 -159.80607605 165.33140564 C-170.08860951 166.9283055 -177.70165732 166.6370719 -186.875 161.5 C-196.08856686 154.28938246 -198.57158062 145.80188384 -200.37573242 134.58764648 C-200.51272049 133.77322586 -200.64970856 132.95880524 -200.79084778 132.1197052 C-201.23678566 129.45471866 -201.67172936 126.78809083 -202.10546875 124.12109375 C-202.41478451 122.24409955 -202.72438536 120.36715231 -203.03425598 118.49024963 C-203.6806028 114.56325617 -204.32104587 110.63535276 -204.95776367 106.70678711 C-205.76772602 101.71443321 -206.59599378 96.72531586 -207.42931652 91.73681545 C-208.07394357 87.86107234 -208.70669119 83.98345542 -209.33626747 80.10524178 C-209.63640851 78.26730333 -209.940519 76.43000789 -210.24895287 74.59344292 C-215.45850944 43.46961978 -215.45850944 43.46961978 -209.34375 33.36328125 C-199.27580608 20.01338502 -182.1596022 19.22697949 -166.73046875 16.796875 C-164.81755063 16.48934075 -162.90473597 16.18116235 -160.99201965 15.87237549 C-157.00836804 15.23131608 -153.02377425 14.5966136 -149.03833008 13.96679688 C-143.94501011 13.16157813 -138.85404479 12.34246233 -133.76366711 11.51887131 C-129.82409686 10.88267275 -125.88354446 10.25274384 -121.94265175 9.62479401 C-120.0650087 9.32505295 -118.18763164 9.02364046 -116.31053734 8.72048187 C-113.68737572 8.29801498 -111.06304282 7.88376172 -108.43823242 7.47167969 C-107.67390396 7.34705353 -106.9095755 7.22242737 -106.12208557 7.09402466 C-95.91742545 5.51568308 -87.22379951 5.91939019 -78.5 11.9375 C-72.69984307 16.64219985 -69.98135147 21.85235066 -68.11328125 29.01953125 C-67.85458252 30.00155518 -67.59588379 30.9835791 -67.3293457 31.99536133 C-67.13816162 32.73939209 -66.94697754 33.48342285 -66.75 34.25 C-66.40332275 33.42387207 -66.05664551 32.59774414 -65.69946289 31.74658203 C-64.37888518 28.62688366 -63.04052533 25.51604987 -61.69018555 22.40917969 C-61.11409518 21.07399611 -60.54484267 19.73583714 -59.9831543 18.39453125 C-55.73052362 8.25801995 -50.74563946 -1.89941716 -40.625 -7.375 C-25.78454039 -12.64056098 -13.27181991 -6.26664921 0 0 Z M-34.75 8.25 C-39.17891802 12.03771646 -41.26773588 15.81410235 -43.4921875 21.05078125 C-43.82364777 21.80481735 -44.15510803 22.55885345 -44.49661255 23.33573914 C-45.55046712 25.74000843 -46.58797871 28.15092949 -47.625 30.5625 C-48.65452241 32.92273231 -49.68725201 35.2815366 -50.72085571 37.63998413 C-51.40363464 39.20986359 -52.07855491 40.78318364 -52.74569702 42.35977173 C-54.33061786 46.09459375 -55.96773159 49.73166726 -57.90087891 53.30029297 C-63.72088282 64.35976619 -62.79007541 72.73540896 -60.375 84.75 C-60.07509232 86.41980017 -59.77950156 88.09038158 -59.48828125 89.76171875 C-58.91282303 93.04125959 -58.27948729 96.30194218 -57.60888672 99.56323242 C-56.99624502 102.63822399 -56.61241579 105.61436795 -56.42626953 108.7434082 C-55.97902633 115.7931591 -55.97902633 115.7931591 -52.33294678 121.59979248 C-47.74852579 124.75047626 -42.56586329 126.54105393 -37.375 128.4375 C-35.74704849 129.08420701 -34.12164674 129.73736719 -32.4987793 130.39672852 C-29.19826603 131.73227878 -25.88820014 133.03822174 -22.56884766 134.32617188 C-18.04819689 136.10244394 -13.63172488 138.05710351 -9.23046875 140.109375 C-8.57252319 140.41494827 -7.91457764 140.72052155 -7.23669434 141.03535461 C-4.16305958 142.46658636 -1.09452082 143.90817232 1.97216797 145.35424805 C8.19594463 148.19708913 13.37090715 150.11837587 20.25 150.25 C26.25535658 147.6389754 28.67125709 143.77577465 31.28125 137.9296875 C31.55843872 137.3115921 31.83562744 136.6934967 32.12121582 136.05667114 C32.70601924 134.74856147 33.28744963 133.43893932 33.86572266 132.12792969 C34.73934254 130.14913964 35.62457097 128.175881 36.51171875 126.203125 C38.13214342 122.56720732 39.74359209 118.9353547 41.25 115.25 C41.54675125 114.58042267 41.8435025 113.91084534 42.14924622 113.22097778 C44.76808307 106.65847909 44.10801579 101.25239053 43.01171875 94.3828125 C42.85210159 93.2674411 42.69248444 92.1520697 42.5280304 91.00289917 C42.01752064 87.45705629 41.4791282 83.916211 40.9375 80.375 C40.41120692 76.84045526 39.89105616 73.30517488 39.37910461 69.76852417 C39.0601736 67.57551145 38.73243324 65.38375444 38.39421082 63.19363403 C37.02723095 53.96781779 36.07800605 45.17123299 39.25 36.25 C27.96877511 30.47486914 16.5399941 25.15767222 4.9375 20.0625 C2.59606729 19.02997889 0.255124 17.99635623 -2.08566284 16.96237183 C-3.58689615 16.29972757 -5.08861487 15.63818177 -6.59085083 14.97781372 C-11.58711394 12.77860843 -16.54705513 10.51097298 -21.47729492 8.16674805 C-26.5195327 6.13284507 -29.74620666 5.95659472 -34.75 8.25 Z M-108.55517578 23.37402344 C-109.38405304 23.50560852 -110.2129303 23.6371936 -111.06692505 23.77276611 C-113.77845153 24.2064747 -116.48677843 24.6573848 -119.1953125 25.109375 C-121.0936932 25.41828853 -122.99220435 25.72640128 -124.89083862 26.03375244 C-128.85771814 26.67862064 -132.82310996 27.33180205 -136.78759766 27.99121094 C-141.85689276 28.83388732 -146.92902577 29.65775339 -152.00236702 30.47567368 C-155.91893371 31.10887151 -159.83399712 31.75098781 -163.74865341 32.39588165 C-165.6180636 32.70295602 -167.48788661 33.0075285 -169.35812759 33.30950165 C-171.9748489 33.73359181 -174.58935412 34.16941904 -177.20361328 34.60839844 C-177.96847046 34.73009399 -178.73332764 34.85178955 -179.5213623 34.97717285 C-185.40513436 35.98499208 -190.78721679 37.28721679 -195.125 41.625 C-198.43251264 46.96790503 -197.61890415 51.68334356 -196.62597656 57.66113281 C-196.49439148 58.49596695 -196.3628064 59.33080109 -196.22723389 60.19093323 C-195.79045789 62.94647685 -195.3409203 65.69976083 -194.890625 68.453125 C-194.58194899 70.37489136 -194.27383148 72.29674751 -193.96624756 74.21868896 C-193.31940374 78.24780198 -192.66633841 82.27584331 -192.00878906 86.30322266 C-191.16940187 91.44695409 -190.34456388 96.59288856 -189.52432632 101.73970413 C-188.88990368 105.71104356 -188.24811953 109.68116647 -187.60411835 113.65096283 C-187.29739509 115.54669343 -186.99282209 117.44277331 -186.69049835 119.33921051 C-186.26491218 122.0011643 -185.82951445 124.66133899 -185.39160156 127.32128906 C-185.26990601 128.09459061 -185.14821045 128.86789215 -185.02282715 129.66462708 C-183.46095521 139.5907346 -183.46095521 139.5907346 -178.1875 147.75 C-168.76746996 153.54694156 -152.80687233 148.13515471 -142.2265625 146.4140625 C-140.46832532 146.13100981 -138.71005441 145.84816664 -136.95175171 145.56552124 C-133.29192769 144.97578924 -129.63281675 144.38184675 -125.97412109 143.78515625 C-121.2988122 143.02326844 -116.62147733 142.2747015 -111.94347572 141.52955055 C-108.32211024 140.95074278 -104.7021352 140.36358458 -101.08250046 139.7740593 C-99.35828244 139.49451443 -97.63359637 139.21783994 -95.90843582 138.94417191 C-93.4981626 138.56081215 -91.09005389 138.16587406 -88.68212891 137.76806641 C-87.97966034 137.65886368 -87.27719177 137.54966095 -86.55343628 137.43714905 C-81.10241537 136.51713941 -75.58540589 135.32223246 -71.8125 131.0625 C-71.461875 130.464375 -71.11125 129.86625 -70.75 129.25 C-71.54664063 128.89808594 -72.34328125 128.54617187 -73.1640625 128.18359375 C-81.43507015 124.32982741 -86.14027216 120.92951199 -90.5625 113 C-93.68515011 103.13899966 -93.13687853 94.84316407 -88.39013672 85.6027832 C-87.8901416 84.70906006 -87.39014648 83.81533691 -86.875 82.89453125 C-77.51526045 65.80940894 -78.42807885 53.64646472 -82.77587891 35.38012695 C-84.03691506 31.32806067 -85.52129159 27.62048245 -88.375 24.4375 C-94.65076657 21.29961672 -101.86539844 22.23276049 -108.55517578 23.37402344 Z M142.70996094 25.13623047 C141.99199341 25.23055359 141.27402588 25.32487671 140.53430176 25.42205811 C138.18365933 25.73229916 135.83400308 26.04936185 133.484375 26.3671875 C131.8424921 26.58677705 130.20058497 26.80618544 128.55865479 27.02542114 C125.12883168 27.48460205 121.69952506 27.94743881 118.27050781 28.41259766 C113.87443164 29.00842677 109.47691788 29.59281248 105.07891464 30.17422295 C101.69304282 30.62349714 98.30816464 31.07992819 94.92353058 31.53842545 C93.30193465 31.75699257 91.67999961 31.97305884 90.05773163 32.18658066 C87.794894 32.48527377 85.53361667 32.79384575 83.27246094 33.10498047 C81.34222076 33.36479202 81.34222076 33.36479202 79.37298584 33.62985229 C76.10211971 34.07268602 76.10211971 34.07268602 73.25 36.25 C73.65992188 36.7346875 74.06984375 37.219375 74.4921875 37.71875 C79.90212512 44.44881594 82.00912438 50.44415721 81.25 59.25 C79.6364958 65.98522119 77.10335522 71.97966289 73.9140625 78.09765625 C60.57377263 103.75318273 60.57377263 103.75318273 62.52075195 131.81958008 C63.46432551 134.96429876 64.09487612 138.14725769 64.73217773 141.36572266 C65.55651881 144.36537584 67.01328858 146.14110066 69.25 148.25 C73.09117432 150.1843225 75.82881784 150.41535916 80.08081055 150.00415039 C81.22858978 149.89402618 82.37636902 149.78390198 83.55892944 149.67044067 C90.03836524 148.93238424 96.49860743 148.08338772 102.95703125 147.18359375 C104.41814149 146.9829058 105.87929866 146.78255924 107.34049988 146.58253479 C111.14004938 146.06149902 114.93895417 145.53590622 118.73773193 145.00927734 C122.63270976 144.47016308 126.52829538 143.93547766 130.42382812 143.40039062 C138.03314493 142.35453104 145.64178443 141.30384408 153.25 140.25 C153.25364563 139.05920334 153.25729126 137.86840668 153.26104736 136.64152527 C153.29808347 125.38693918 153.35595023 114.13262453 153.43390274 102.87824535 C153.47331227 97.09305418 153.50553283 91.30801375 153.52099609 85.52270508 C153.53620551 79.93337158 153.57072738 74.34445267 153.61830902 68.75530434 C153.63307863 66.62925138 153.64103846 64.50313923 153.64188385 62.37703514 C153.65246093 49.10752382 154.15206046 38.80806269 161.25 27.25 C158.77497822 24.87397909 157.55129076 24.26412544 154.06890869 24.1008606 C150.23056399 24.25075903 146.51731364 24.62971887 142.70996094 25.13623047 Z M182.25 35.25 C182.82065548 44.52165749 183.89980599 53.67853046 185.20768929 62.86870575 C185.54376218 65.232403 185.87429481 67.59682047 186.20347595 69.96148682 C187.1389263 76.67411978 188.08425742 83.38535063 189.0324707 90.09619141 C189.61586054 94.22775488 190.19322543 98.36012638 190.76711845 102.4930191 C190.98523039 104.05450609 191.20567717 105.61566895 191.42860603 107.17647552 C195.07340653 132.69687166 195.07340653 132.69687166 187.25 144.1875 C185.27013656 146.22923417 183.26309565 148.2410983 181.25 150.25 C193.2720325 150.31953435 205.29401709 150.37282885 217.31620979 150.40543652 C222.89870435 150.42108717 228.48106124 150.44231473 234.06347656 150.47631836 C239.45160143 150.50893284 244.83959394 150.52685753 250.22780991 150.53463173 C252.28269407 150.54017145 254.33757106 150.55098918 256.39239883 150.56719017 C259.27233746 150.58899198 262.15173031 150.59196574 265.03173828 150.59057617 C265.87978531 150.601362 266.72783234 150.61214783 267.60157776 150.6232605 C272.57063429 150.59734588 275.92679575 149.96936448 280.25 147.25 C285.03271699 142.30236173 284.40235484 135.89424064 284.41113281 129.43994141 C284.41609772 128.5628804 284.42106262 127.6858194 284.42617798 126.78218079 C284.44075043 123.8886333 284.44759282 120.99514061 284.453125 118.1015625 C284.45887978 116.08523559 284.46463747 114.06890868 284.47039795 112.05258179 C284.48089344 107.82769517 284.48674584 103.6028275 284.49023438 99.37792969 C284.49572102 93.97205588 284.51975894 88.56643369 284.54820633 83.16063881 C284.5668542 78.99642205 284.57203942 74.8322657 284.57357025 70.66801071 C284.57659161 68.67536415 284.58460265 66.68271851 284.59775543 64.69011307 C284.61486346 61.89949763 284.61292424 59.10949467 284.60644531 56.31884766 C284.6156601 55.50095261 284.62487488 54.68305756 284.6343689 53.84037781 C284.59618227 48.57376497 283.7280505 44.92354715 281.25 40.25 C275.97746678 35.24109344 271.53857294 35.10659285 264.5559082 35.13647461 C263.6678952 35.13632858 262.7798822 35.13618256 261.86495972 35.1360321 C258.92687546 35.13672932 255.98885444 35.14451282 253.05078125 35.15234375 C251.01482681 35.15420861 248.97887192 35.15563219 246.94291687 35.15663147 C241.58188643 35.16045131 236.22088303 35.17027708 230.85986328 35.18133545 C225.3903032 35.19156101 219.92073876 35.19613155 214.45117188 35.20117188 C203.71743603 35.21189979 192.98372026 35.22896985 182.25 35.25 Z M53.25 43.25 C49.95963352 49.83073295 53.13273806 59.88034886 54.25 66.75 C54.44078125 67.95398438 54.6315625 69.15796875 54.828125 70.3984375 C55.29660763 73.34987808 55.77070551 76.30029931 56.25 79.25 C58.73881553 75.51677671 60.55480827 71.62687989 62.4375 67.5625 C62.81841797 66.78455078 63.19933594 66.00660156 63.59179688 65.20507812 C66.1278703 59.68647188 66.70776051 56.19069658 65.25 50.25 C62.67328942 47.04652198 60.13892668 44.67593978 56.25 43.25 C55.26 43.25 54.27 43.25 53.25 43.25 Z M169.25 64.25 C169.25 88.34 169.25 112.43 169.25 137.25 C173.88946652 135.39421339 175.38971469 134.77132765 177.60447693 130.47491455 C178.40394753 127.7193914 178.24371193 125.62892444 177.95336914 122.77636719 C177.84678986 121.71317261 177.74021057 120.64997803 177.63040161 119.55456543 C177.02111093 114.26163065 176.34720092 108.98127148 175.62109375 103.703125 C175.46713638 102.56591003 175.31317902 101.42869507 175.15455627 100.25701904 C174.66840708 96.67094924 174.17802938 93.08547299 173.6875 89.5 C173.35453638 87.04951738 173.02185152 84.59899686 172.68945312 82.1484375 C171.87952093 76.18185024 171.06612845 70.21574271 170.25 64.25 C169.92 64.25 169.59 64.25 169.25 64.25 Z M-74.75 93.25 C-76.5738171 96.89763419 -77.75 99.27920254 -77.75 103.375 C-76.49703376 106.97727793 -74.59584002 108.76901126 -71.75 111.25 C-72.40091677 102.20764945 -72.40091677 102.20764945 -73.75 93.25 C-74.08 93.25 -74.41 93.25 -74.75 93.25 Z " fill="#009B3D" transform="translate(212.75,8.75)"/>
<path d="M0 0 C4.02290764 3.28710743 6.65203602 6.55557801 8.75 11.3125 C9.38615234 12.74142578 9.38615234 12.74142578 10.03515625 14.19921875 C13.77122128 25.51454114 8.93094372 34.01382937 3.85083008 44.15283203 C3.48755615 44.86552246 3.12428223 45.57821289 2.75 46.3125 C2.08264852 47.64549071 1.41575737 48.97871241 0.75 50.3125 C0.09 50.3125 -0.57 50.3125 -1.25 50.3125 C-1.38575439 49.43513184 -1.52150879 48.55776367 -1.66137695 47.65380859 C-2.17342621 44.37608658 -2.69443479 41.10004507 -3.22143555 37.82470703 C-3.44700747 36.41120911 -3.66907162 34.99714649 -3.88745117 33.58251953 C-4.20334273 31.54037772 -4.53210954 29.50065024 -4.86328125 27.4609375 C-5.05704346 26.23552246 -5.25080566 25.01010742 -5.45043945 23.74755859 C-6.54748271 19.03445978 -7.85156246 15.42407856 -11.6875 12.375 C-21.94196271 9.31665147 -35.23048103 13.45467583 -45.67578125 15.1484375 C-47.43545882 15.43142099 -49.19515874 15.71426555 -50.95487976 15.99697876 C-54.62060161 16.58717458 -58.28569626 17.18110287 -61.95043945 17.77734375 C-66.63371066 18.53868281 -71.31890719 19.28738611 -76.0047121 20.03294945 C-79.63035731 20.61181889 -83.25462547 21.19897186 -86.87856102 21.7884407 C-88.6055635 22.06803122 -90.33304086 22.34470543 -92.06099892 22.61832809 C-94.47616315 23.00171247 -96.88917232 23.39665591 -99.30200195 23.79443359 C-100.35806137 23.95823769 -100.35806137 23.95823769 -101.43545532 24.12535095 C-106.76811312 25.02342884 -112.20434139 26.26684139 -116.125 30.1875 C-118.87119452 35.37475631 -118.05522131 40.12923769 -117.12597656 45.72363281 C-116.99439148 46.55846695 -116.8628064 47.39330109 -116.72723389 48.25343323 C-116.29045789 51.00897685 -115.8409203 53.76226083 -115.390625 56.515625 C-115.08194899 58.43739136 -114.77383148 60.35924751 -114.46624756 62.28118896 C-113.81940374 66.31030198 -113.16633841 70.33834331 -112.50878906 74.36572266 C-111.66940187 79.50945409 -110.84456388 84.65538856 -110.02432632 89.80220413 C-109.38990368 93.77354356 -108.74811953 97.74366647 -108.10411835 101.71346283 C-107.79739509 103.60919343 -107.49282209 105.50527331 -107.19049835 107.40171051 C-106.76491218 110.0636643 -106.32951445 112.72383899 -105.89160156 115.38378906 C-105.70905823 116.54374138 -105.70905823 116.54374138 -105.52282715 117.72712708 C-103.89617246 127.58535498 -103.89617246 127.58535498 -98.875 135.9375 C-88.71758708 139.7903118 -74.3159925 135.19913828 -63.7265625 133.4765625 C-61.96832532 133.19350981 -60.21005441 132.91066664 -58.45175171 132.62802124 C-54.79192769 132.03828924 -51.13281675 131.44434675 -47.47412109 130.84765625 C-42.7988122 130.08576844 -38.12147733 129.3372015 -33.44347572 128.59205055 C-29.82211024 128.01324278 -26.2021352 127.42608458 -22.58250046 126.8365593 C-20.85828244 126.55701443 -19.13359637 126.28033994 -17.40843582 126.00667191 C-14.9981626 125.62331215 -12.59005389 125.22837406 -10.18212891 124.83056641 C-9.47966034 124.72136368 -8.77719177 124.61216095 -8.05343628 124.49964905 C-2.43058391 123.55063813 4.1487539 122.11416147 7.75 117.3125 C10.54066499 108.94050503 7.42868057 98.51231541 4.7890625 90.3359375 C1.5208785 76.81345141 8.53860127 66.03203783 14.75 54.3125 C15.41 54.6425 16.07 54.9725 16.75 55.3125 C17.29421997 57.20550537 17.29421997 57.20550537 17.71142578 59.71777344 C17.87144073 60.65675476 18.03145569 61.59573608 18.19631958 62.56317139 C18.36098724 63.58904358 18.52565491 64.61491577 18.6953125 65.671875 C18.87005096 66.7272345 19.04478943 67.78259399 19.224823 68.86993408 C19.5939589 71.11552286 19.95849251 73.36187215 20.31884766 75.60888672 C20.86633495 79.00869148 21.43400928 82.40467066 22.00390625 85.80078125 C27.15358103 117.08678154 27.15358103 117.08678154 19.5 129.30859375 C11.08094069 140.43036244 -3.51504765 141.11524489 -16.25390625 143.08203125 C-18.30333535 143.40994642 -20.35256259 143.73912552 -22.40159607 144.06950378 C-26.68082145 144.75597573 -30.96157558 145.43150448 -35.24389648 146.09838867 C-40.71588231 146.95080857 -46.18431582 147.82385438 -51.65185642 148.70428944 C-55.87782355 149.38361607 -60.10496984 150.05533861 -64.3325634 150.72446251 C-66.34891153 151.04387061 -68.36501568 151.36482302 -70.38086128 151.68738747 C-73.20278683 152.13707463 -76.02602659 152.57732465 -78.84985352 153.01489258 C-80.08217964 153.21350136 -80.08217964 153.21350136 -81.33940125 153.41612244 C-91.60949733 154.98191617 -99.21494532 154.69213062 -108.375 149.5625 C-117.58856686 142.35188246 -120.07158062 133.86438384 -121.87573242 122.65014648 C-122.01272049 121.83572586 -122.14970856 121.02130524 -122.29084778 120.1822052 C-122.73678566 117.51721866 -123.17172936 114.85059083 -123.60546875 112.18359375 C-123.91478451 110.30659955 -124.22438536 108.42965231 -124.53425598 106.55274963 C-125.1806028 102.62575617 -125.82104587 98.69785276 -126.45776367 94.76928711 C-127.26772602 89.77693321 -128.09599378 84.78781586 -128.92931652 79.79931545 C-129.57394357 75.92357234 -130.20669119 72.04595542 -130.83626747 68.16774178 C-131.13640851 66.32980333 -131.440519 64.49250789 -131.74895287 62.65594292 C-136.95850944 31.53211978 -136.95850944 31.53211978 -130.84375 21.42578125 C-120.77580608 8.07588502 -103.6596022 7.28947949 -88.23046875 4.859375 C-86.31755063 4.55184075 -84.40473597 4.24366235 -82.49201965 3.93487549 C-78.50836804 3.29381608 -74.52377425 2.6591136 -70.53833008 2.02929688 C-65.44501011 1.22407813 -60.35404479 0.40496233 -55.26366711 -0.41862869 C-51.32409686 -1.05482725 -47.38354446 -1.68475616 -43.44265175 -2.31270599 C-41.5650087 -2.61244705 -39.68763164 -2.91385954 -37.81053734 -3.21701813 C-35.18737572 -3.63948502 -32.56304282 -4.05373828 -29.93823242 -4.46582031 C-29.17390396 -4.59044647 -28.4095755 -4.71507263 -27.62208557 -4.84347534 C-17.41742545 -6.42181692 -8.72379951 -6.01810981 0 0 Z " fill="#F30013" transform="translate(134.25,20.6875)"/>
<path d="M0 0 C0.85770493 -0.00860046 1.71540985 -0.01720093 2.59910583 -0.02606201 C3.53214035 -0.03032196 4.46517487 -0.03458191 5.42648315 -0.03897095 C6.4156221 -0.04714844 7.40476105 -0.05532593 8.4238739 -0.06375122 C11.6980123 -0.08856622 14.97210739 -0.10511291 18.24630737 -0.11953735 C19.3665115 -0.12486103 20.48671562 -0.13018471 21.64086533 -0.13566971 C27.57216456 -0.16238659 33.50344288 -0.1817647 39.43478394 -0.19619751 C44.33503933 -0.20952689 49.23487736 -0.23736393 54.13497925 -0.27822876 C60.0594564 -0.32763292 65.98355548 -0.35232842 71.90822983 -0.35942459 C74.16078696 -0.36612333 76.41333612 -0.38130925 78.6657753 -0.4053154 C81.82733928 -0.43708379 84.98745643 -0.43698555 88.1491394 -0.42959595 C89.5304731 -0.45420395 89.5304731 -0.45420395 90.93971252 -0.47930908 C98.61192572 -0.40633924 105.13039399 1.88166196 110.83213997 7.14380836 C117.5965039 14.30209379 119.1257263 20.85738834 119.09591675 30.42855835 C119.10438629 31.43764252 119.11285583 32.44672668 119.12158203 33.48638916 C119.1449059 36.80928286 119.14597515 40.13171216 119.14474487 43.4546814 C119.15184989 45.77484826 119.15954939 48.09501338 119.16781616 50.41517639 C119.18125092 55.2746672 119.18283449 60.13399559 119.17697144 64.99349976 C119.17108057 71.20410183 119.2016473 77.41392079 119.24208832 83.62437153 C119.26800886 88.41581888 119.27083866 93.20707886 119.26719666 97.99858665 C119.26888423 100.28740594 119.27849157 102.57623421 119.29634094 104.86498451 C119.31861291 108.0742 119.30878543 111.28184569 119.29122925 114.49105835 C119.30449249 115.42593582 119.31775574 116.36081329 119.3314209 117.32402039 C119.22352789 125.8631754 116.10381467 132.58389005 110.55099487 139.02890015 C100.21437687 148.29901479 86.21043403 146.72513687 73.26193237 146.6499939 C71.0796097 146.6501491 68.89728675 146.65164159 66.71496582 146.65440369 C62.15757961 146.65578297 57.60050991 146.64330633 53.04318237 146.62045288 C47.21837154 146.59203619 41.39408466 146.59482126 35.56923485 146.60754299 C31.06863981 146.61451531 26.56816471 146.60669366 22.06758499 146.59428596 C19.9203093 146.58978897 17.77302066 146.58941925 15.62574387 146.59335136 C12.62058074 146.59627971 9.61612669 146.57968014 6.61105347 146.55795288 C5.29692726 146.56470535 5.29692726 146.56470535 3.95625305 146.57159424 C-5.46205443 146.45913189 -13.01911549 143.75147117 -20.19900513 137.52890015 C-21.32400513 136.15390015 -21.32400513 136.15390015 -21.32400513 134.15390015 C-20.37138794 134.03272827 -19.41877075 133.9115564 -18.43728638 133.78671265 C-17.18302856 133.61913452 -15.92877075 133.4515564 -14.63650513 133.27890015 C-13.39513794 133.11647827 -12.15377075 132.9540564 -10.87478638 132.78671265 C-7.47705743 132.34351797 -7.47705743 132.34351797 -5.18238831 131.13130188 C-1.11928342 129.741955 2.69520016 129.87014638 6.96090698 129.88265991 C8.35205971 129.87481979 8.35205971 129.87481979 9.77131653 129.86682129 C11.78088124 129.85659658 13.79047232 129.85080356 15.80006218 129.8489399 C18.9821036 129.84527325 22.1638342 129.8285386 25.34580994 129.80818176 C34.3912783 129.7527952 43.43679212 129.72207543 52.48239136 129.69760132 C58.01902337 129.6817191 63.55543405 129.65149446 69.09195137 129.61283684 C71.19982108 129.60119437 73.30773039 129.59525655 75.41563225 129.59515572 C78.36455248 129.59496348 81.31286281 129.57668334 84.26168823 129.55453491 C85.12993225 129.55911209 85.99817627 129.56368927 86.89273071 129.56840515 C91.87867383 129.50892858 95.38136501 128.96854784 99.67599487 126.15390015 C103.19620395 120.87358653 102.828772 115.48764176 102.83712769 109.34384155 C102.84209259 108.46678055 102.8470575 107.58971954 102.85217285 106.68608093 C102.8667453 103.79253345 102.87358769 100.89904076 102.87911987 98.00546265 C102.88487465 95.98913573 102.89063234 93.97280883 102.89639282 91.95648193 C102.90688831 87.73159532 102.91274072 83.50672765 102.91622925 79.28182983 C102.9217159 73.87595603 102.94575381 68.47033384 102.9742012 63.06453896 C102.99284908 58.90032219 102.9980343 54.73616585 102.99956512 50.57191086 C103.00258648 48.57926429 103.01059752 46.58661866 103.02375031 44.59401321 C103.04085833 41.80339777 103.03891911 39.01339481 103.03244019 36.2227478 C103.04626236 34.99590523 103.04626236 34.99590523 103.06036377 33.74427795 C103.02219783 28.48051918 102.13402423 24.83214997 99.67599487 20.15390015 C94.90264876 15.67888817 89.81812191 16.00067202 83.6022644 15.99276733 C82.67351501 15.98780243 81.74476563 15.98283752 80.78787231 15.97772217 C77.71150983 15.96310167 74.63519891 15.95629901 71.55880737 15.95077515 C69.42272947 15.94502398 67.28665159 15.93926624 65.15057373 15.9335022 C60.66994994 15.92299279 56.1893441 15.9171496 51.70870972 15.91366577 C45.9662869 15.9081786 40.2241009 15.88414545 34.4817524 15.85569382 C30.06884059 15.83707497 25.65598595 15.83186225 21.24303818 15.8303299 C19.12593159 15.82730157 17.00882605 15.81926701 14.89175797 15.80614471 C11.93049309 15.78909882 8.96980837 15.79096091 6.0085144 15.79745483 C4.69604233 15.78363266 4.69604233 15.78363266 3.35705566 15.76953125 C-1.31093397 15.80161425 -4.66549334 15.93265244 -8.32400513 19.15390015 C-11.73324156 24.12412653 -11.73836926 28.57050568 -11.6645813 34.37216187 C-11.66501938 35.28012009 -11.66545746 36.18807831 -11.66590881 37.12355042 C-11.66382672 40.11045185 -11.64052289 43.09678483 -11.61697388 46.08358765 C-11.61137587 48.1600921 -11.60710674 50.23660052 -11.60411072 52.31311035 C-11.59267814 57.7679038 -11.56322446 63.2224561 -11.52999878 68.67715454 C-11.49926377 74.2474949 -11.48559804 79.81787437 -11.4704895 85.38827515 C-11.43835337 96.31025586 -11.38717608 107.23205792 -11.32400513 118.15390015 C-16.60400513 118.81390015 -21.88400513 119.47390015 -27.32400513 120.15390015 C-27.41692636 107.6967131 -27.48788232 95.23960931 -27.53125381 82.7821455 C-27.55207615 76.99684035 -27.5802959 71.21177335 -27.62576294 65.42660522 C-27.66941165 59.83744802 -27.69318245 54.24851906 -27.7035141 48.65920448 C-27.71087139 46.53307824 -27.72523805 44.40696365 -27.74692535 42.28093529 C-27.86567484 30.15092408 -27.78632908 20.18608327 -21.76150513 9.34140015 C-15.69630503 3.89827185 -8.21023627 0.06158434 0 0 Z " fill="#FEAE00" transform="translate(393.3240051269531,28.846099853515625)"/>
<path d="M0 0 C1.1222138 7.96452745 2.24388685 15.92913081 3.36492634 23.89382362 C3.88585599 27.59477843 4.40695099 31.29570977 4.9284668 34.99658203 C5.13135525 36.43652237 5.33423614 37.87646377 5.53710938 39.31640625 C5.63700102 40.02538433 5.73689266 40.73436241 5.83981133 41.46482468 C6.6271647 47.05590942 7.40966641 52.64766618 8.1908741 58.23961258 C8.77126874 62.38747368 9.36361039 66.53347004 9.96240234 70.67871094 C10.23935135 72.62693983 10.51621397 74.57518101 10.79296875 76.5234375 C10.91803299 77.36895172 11.04309723 78.21446594 11.17195129 79.08560181 C12.64804253 89.59442926 12.48359603 98.51703283 6.8671875 107.890625 C1.26174298 115.24081053 -7.66599543 118.00075811 -16.4453125 119.26171875 C-17.55933441 119.42893684 -17.55933441 119.42893684 -18.69586182 119.59953308 C-21.17130535 119.9688561 -23.64802412 120.32860774 -26.125 120.6875 C-27.87453448 120.94466942 -29.62404568 121.20199728 -31.37353516 121.45947266 C-37.24713471 122.3195895 -43.12340052 123.16066405 -49 124 C-50.09368896 124.15676208 -51.18737793 124.31352417 -52.31420898 124.47503662 C-59.2018352 125.46157776 -66.09088714 126.4372508 -72.98187256 127.40005493 C-75.23106171 127.71487992 -77.4799683 128.03173074 -79.72857666 128.35067749 C-82.90927414 128.80062448 -86.09112049 129.24136017 -89.2734375 129.6796875 C-90.21052551 129.81376511 -91.14761353 129.94784271 -92.11309814 130.08598328 C-103.39031598 131.61469967 -113.03380303 131.80072134 -123.07421875 125.75 C-128.85211552 121.33824368 -132.80105088 114.16818519 -134 107 C-134.92305654 99.11851727 -131.90472229 93.49348363 -128.5 86.5 C-127.71302734 84.83710938 -127.71302734 84.83710938 -126.91015625 83.140625 C-125.62032292 80.42024925 -124.31677436 77.70741033 -123 75 C-120.34365593 77.65634407 -120.49008057 79.40305634 -120.03515625 83.109375 C-119.87466797 84.33914062 -119.71417969 85.56890625 -119.54882812 86.8359375 C-119.22658059 89.4294478 -118.90624409 92.02319632 -118.58789062 94.6171875 C-118.42611328 95.85210937 -118.26433594 97.08703125 -118.09765625 98.359375 C-117.88894897 100.05271973 -117.88894897 100.05271973 -117.67602539 101.78027344 C-116.70538899 106.40315276 -115.32143686 109.92198572 -111.625 112.9375 C-102.39218321 115.64367044 -91.03657572 112.56809271 -81.6328125 111.2578125 C-80.39618866 111.08877411 -79.15956482 110.91973572 -77.88546753 110.74557495 C-73.9648112 110.2089582 -70.04488845 109.66719471 -66.125 109.125 C-62.25361599 108.59280598 -58.38208487 108.06170415 -54.51043701 107.53143311 C-51.97961838 107.18408172 -49.44905607 106.83485728 -46.91876221 106.48370361 C-41.00646611 105.66651124 -35.09429714 104.87955358 -29.16699219 104.17871094 C-28.10970917 104.05108368 -27.05242615 103.92345642 -25.96310425 103.79196167 C-24.00458138 103.55805967 -22.04490703 103.33352087 -20.08401489 103.12039185 C-15.39643476 102.55544381 -11.8277183 101.99646033 -8 99 C-3.20515923 92.76670701 -5.51360065 84.98462724 -6.40432739 77.68771362 C-6.86782584 74.15246572 -7.35447178 70.62106914 -7.84765625 67.08984375 C-8.11687938 65.12027372 -8.38609359 63.15070242 -8.65479946 61.18106174 C-9.30945004 56.38833954 -9.9704134 51.59650116 -10.63696289 46.80541992 C-11.01344267 44.09734554 -11.38592211 41.38877483 -11.7542572 38.67958069 C-12.09872105 36.14768774 -12.44893435 33.61656783 -12.80592346 31.08641052 C-15.39197521 11.94405175 -15.39197521 11.94405175 -12.3125 6 C-8.59946598 1.183091 -5.98350467 -0.16981566 0 0 Z " fill="#006EB8" transform="translate(395,44)"/>
<path d="M0 0 C4.31300361 0.62734598 5.57867694 1.91040484 8.1484375 5.3046875 C11.93826289 11.75887498 13.7262073 19.36039567 11.88470459 26.70465088 C10.13952263 32.59823797 8.0068853 38.14769049 5.453125 43.734375 C5.07444275 44.57486389 4.6957605 45.41535278 4.30560303 46.28131104 C3.50845146 48.04727748 2.70830343 49.81189417 1.90527344 51.57519531 C0.69809883 54.22671998 -0.49939206 56.88244581 -1.6953125 59.5390625 C-5.65715736 68.30939964 -9.72047904 77.00567114 -14.08789062 85.58178711 C-17.10635094 91.55524011 -20.01520093 97.53566255 -22 103.9375 C-25.26738575 114.01043508 -29.54213428 122.53130029 -38.5625 128.5 C-46.90397243 132.749973 -54.88996816 132.26177726 -63.60229492 129.55273438 C-69.5608709 127.43369276 -75.26424379 124.7129728 -81 122.0625 C-83.04615124 121.12574402 -85.09335665 120.19131835 -87.14060974 119.25697327 C-88.53381958 118.62094069 -89.92669185 117.98416818 -91.31922913 117.34666443 C-98.47970069 114.07085119 -105.67476042 110.87473174 -112.875 107.6875 C-115.10039474 106.70212621 -117.32566749 105.71647686 -119.55078125 104.73046875 C-120.47415283 104.32207764 -121.39752441 103.91368652 -122.34887695 103.49291992 C-123.76651393 102.8570393 -125.17281262 102.19484369 -126.5625 101.5 C-126.253125 100.530625 -125.94375 99.56125 -125.625 98.5625 C-124.38282903 94.26335509 -123.94565147 89.94657366 -123.5625 85.5 C-118.50157002 86.16189225 -114.2088933 88.31904021 -109.625 90.4375 C-108.749646 90.83646484 -107.87429199 91.23542969 -106.97241211 91.64648438 C-104.16681101 92.9260315 -101.36447751 94.21253964 -98.5625 95.5 C-92.16828546 98.42992369 -85.76728693 101.34386565 -79.35449219 104.23291016 C-76.50166576 105.5276084 -73.66145702 106.84786539 -70.8203125 108.16796875 C-68.96406494 109.00896842 -67.10731167 109.84885298 -65.25 110.6875 C-64.40896729 111.08646484 -63.56793457 111.48542969 -62.70141602 111.89648438 C-57.12255929 114.37523189 -52.51475313 115.35887732 -46.5625 113.5 C-42.87461287 110.88733719 -41.45388574 107.5932623 -39.6796875 103.50390625 C-39.15705322 102.31555176 -38.63441895 101.12719727 -38.09594727 99.90283203 C-37.54312403 98.62272458 -36.99030844 97.34261384 -36.4375 96.0625 C-35.28190128 93.42376874 -34.11961792 90.78800235 -32.95703125 88.15234375 C-32.52459358 87.16874878 -32.52459358 87.16874878 -32.0834198 86.1652832 C-29.5518379 80.42571075 -26.86455177 74.7681263 -24.125 69.125 C-20.8426908 62.32496347 -17.84603812 55.52070663 -15.1484375 48.46484375 C-13.92659325 45.32166992 -12.56410189 42.25921949 -11.1640625 39.19140625 C-10.74519775 38.26070312 -10.32633301 37.33 -9.89477539 36.37109375 C-9.06806515 34.54250798 -8.22678979 32.72041504 -7.36889648 30.90625 C-4.81795968 25.21214613 -4.02359906 21.60856311 -5.5625 15.5 C-8.45116963 11.80892214 -11.10094397 9.90220332 -15.5625 8.5 C-15.2077187 5.92783554 -14.7582002 4.70322713 -12.9375 2.8125 C-8.85791942 0.55799494 -4.54320866 0.63764332 0 0 Z " fill="#009C3D" transform="translate(282.5625,43.5)"/>
<path d="M0 0 C2.18929869 2.25771427 2.92318157 4.14451435 4 7.0625 C2.95199219 7.46082031 2.95199219 7.46082031 1.8828125 7.8671875 C0.97273437 8.22039063 0.06265625 8.57359375 -0.875 8.9375 C-1.77992188 9.28554688 -2.68484375 9.63359375 -3.6171875 9.9921875 C-6.12217007 10.94780895 -6.12217007 10.94780895 -8 13.0625 C-10.61580479 12.7355244 -12.64078137 12.24210932 -15 11.0625 C-25.16006802 11.2385541 -35.25855681 12.63931103 -45.3046875 14.05859375 C-46.72218952 14.25466221 -48.13976339 14.45021185 -49.55740356 14.64527893 C-53.25028881 15.15457551 -56.94232424 15.66976903 -60.63415527 16.18664551 C-66.52119083 17.00987481 -72.40948242 17.82406807 -78.29779816 18.6380806 C-80.40903667 18.93073122 -82.51993188 19.22576686 -84.63079834 19.52108765 C-90.31889175 20.31301274 -96.00340361 21.09079877 -101.71582031 21.68798828 C-102.51641876 21.77194351 -103.31701721 21.85589874 -104.14187622 21.94239807 C-106.11166796 22.13929998 -108.0833553 22.3170069 -110.05517578 22.49243164 C-113.20304171 23.10180545 -114.69640595 23.87032648 -117 26.0625 C-121.06535222 33.17686638 -118.65581254 42.44561485 -117.5 50.125 C-117.21416262 52.03187008 -116.93280627 53.93941802 -116.65625 55.84765625 C-116.53056641 56.68176025 -116.40488281 57.51586426 -116.27539062 58.37524414 C-115.66158196 64.36477606 -115.89096522 68.69836691 -118.40625 74.21484375 C-118.90253906 75.32021484 -119.39882813 76.42558594 -119.91015625 77.56445312 C-120.43480469 78.69818359 -120.95945312 79.83191406 -121.5 81 C-122.02464844 82.16080078 -122.54929687 83.32160156 -123.08984375 84.51757812 C-124.38168996 87.37138385 -125.68529751 90.21916979 -127 93.0625 C-127.66 92.7325 -128.32 92.4025 -129 92.0625 C-129.5062561 90.04214478 -129.5062561 90.04214478 -129.86962891 87.35009766 C-130.00962311 86.34459869 -130.14961731 85.33909973 -130.29385376 84.3031311 C-130.43664764 83.20536346 -130.57944153 82.10759583 -130.7265625 80.9765625 C-130.87910492 79.84987152 -131.03164734 78.72318054 -131.18881226 77.56234741 C-131.51084644 75.16699461 -131.82830284 72.77102272 -132.14160156 70.37451172 C-132.61861521 66.73619857 -133.1128122 63.10053413 -133.609375 59.46484375 C-133.92031435 57.13555573 -134.23024125 54.80613229 -134.5390625 52.4765625 C-134.75932602 50.86027451 -134.75932602 50.86027451 -134.98403931 49.21133423 C-137.79195103 27.43061152 -137.79195103 27.43061152 -131.23046875 18.7109375 C-119.51351632 4.95528015 -103.22619582 4.64845544 -86.30078125 2.36328125 C-84.53106765 2.12120087 -82.76138957 1.87886072 -80.991745 1.63627625 C-77.30869788 1.13273279 -73.62513225 0.63321828 -69.94116211 0.13647461 C-65.24665725 -0.4969919 -60.55382591 -1.1420358 -55.86134052 -1.79027081 C-52.21668328 -2.29219192 -48.57111434 -2.7872227 -44.92525291 -3.28031349 C-43.19518393 -3.51525818 -41.46541819 -3.7524484 -39.73598671 -3.99204063 C-12.09459476 -7.81109245 -12.09459476 -7.81109245 0 0 Z " fill="#006EB8" transform="translate(385,22.9375)"/>
<path d="M0 0 C3.77039712 3.67613719 4.88313744 6.57427677 5.3125 11.8125 C5.24803379 16.19620197 3.88627274 18.64568303 1 22 C-2.68956505 25.16248433 -6.07577294 25.51622424 -10.78125 25.359375 C-14.22988016 24.80079406 -16.38075803 23.23593827 -19 21 C-22.01012811 16.48480784 -22.26308217 12.69541846 -21.4375 7.375 C-19.37273896 2.52730017 -16.66936683 0.08217574 -11.6875 -1.9375 C-7.58569248 -2.03289087 -3.8413297 -1.47191138 0 0 Z M-15 7 C-16.09834318 11.02725831 -16.44280454 13.07413596 -14.625 16.875 C-13.17208818 18.8719664 -13.17208818 18.8719664 -12 20 C-7.27348823 20.49480912 -7.27348823 20.49480912 -3.125 18.625 C-0.63495255 15.02826479 -0.55684845 12.35765689 -1 8 C-3.31197639 4.89534599 -4.74283172 3.27596377 -8.5625 2.4375 C-11.88922355 3.20520543 -13.00944778 4.22744513 -15 7 Z " fill="#000000" transform="translate(350,193)"/>
<path d="M0 0 C2.40591629 3.93695393 3.35575503 6.78067121 3.0625 11.375 C1.85797215 15.62627477 0.67430056 17.80689948 -2.5625 20.8125 C-6.88275738 22.81261916 -10.2562642 23.19715252 -14.9375 22.375 C-19.85374028 20.00792134 -22.12352527 17.51459507 -23.9375 12.375 C-24.46631413 7.35126577 -24.07058361 4.37238254 -20.9375 0.375 C-14.31502645 -5.89892231 -6.81181059 -6.08714989 0 0 Z M-15.3125 1.25 C-17.90844876 4.64470222 -18.23220737 8.16805224 -17.9375 12.375 C-16.65485902 15.56275608 -16.65485902 15.56275608 -13.9375 17.375 C-10.48854158 17.85906434 -8.17770415 18.03644221 -5.0625 16.375 C-3.27227885 13.19238462 -2.83945751 9.96755682 -2.9375 6.375 C-3.73177959 3.35549847 -3.73177959 3.35549847 -5.9375 1.375 C-9.52035814 0.332714 -11.78259278 -0.05049214 -15.3125 1.25 Z " fill="#000000" transform="translate(233.9375,195.625)"/>
<path d="M0 0 C1.65 0 3.3 0 5 0 C5 3.3 5 6.6 5 10 C8.63 10 12.26 10 16 10 C16 6.7 16 3.4 16 0 C17.98 0 19.96 0 22 0 C22.02886751 4.14581887 22.04675327 8.29161216 22.0625 12.4375 C22.07087891 13.62150391 22.07925781 14.80550781 22.08789062 16.02539062 C22.09272461 17.71245117 22.09272461 17.71245117 22.09765625 19.43359375 C22.10551147 20.99678345 22.10551147 20.99678345 22.11352539 22.59155273 C22 25 22 25 21 26 C19.35 26 17.7 26 16 26 C16 22.37 16 18.74 16 15 C12.37 15 8.74 15 5 15 C5 18.63 5 22.26 5 26 C3.35 26 1.7 26 0 26 C0 17.42 0 8.84 0 0 Z " fill="#000000" transform="translate(272,192)"/>
<path d="M0 0 C6.27 0 12.54 0 19 0 C19.33 0.66 19.66 1.32 20 2 C18.7421875 4.35546875 18.7421875 4.35546875 16.875 7.1875 C16.23175781 8.1671875 15.58851563 9.146875 14.92578125 10.15625 C12.67311266 13.48270585 10.37572448 16.76037571 8 20 C11.63 20.33 15.26 20.66 19 21 C19 22.65 19 24.3 19 26 C12.4 26 5.8 26 -1 26 C-0.14316471 21.71582356 0.17677274 20.30180406 2.50390625 17.01171875 C2.99697266 16.30595703 3.49003906 15.60019531 3.99804688 14.87304688 C4.51431641 14.15181641 5.03058594 13.43058594 5.5625 12.6875 C6.08263672 11.94693359 6.60277344 11.20636719 7.13867188 10.44335938 C8.41833871 8.62364965 9.70817975 6.81110219 11 5 C7.37 4.67 3.74 4.34 0 4 C0 2.68 0 1.36 0 0 Z " fill="#000000" transform="translate(158,192)"/>
</svg>
